<svg xmlns="http://www.w3.org/2000/svg" viewBox="0 0 122.32 220.45"><defs><style>.cls-1{fill:#1d1d1b;}</style></defs><title>자산 1</title><g id="레이어_2" data-name="레이어 2"><g id="Layer_1" data-name="Layer 1"><path class="cls-1" d="M122.32,110.78a6.47,6.47,0,0,0-5.74-6.42V55.09A55.35,55.35,0,0,0,61.32,0H61A55.35,55.35,0,0,0,5.75,55.09h0v49.27a6.45,6.45,0,0,0,0,12.83v48A55.32,55.32,0,0,0,61,220.45h.32a55.32,55.32,0,0,0,55.26-55.26v-48A6.47,6.47,0,0,0,122.32,110.78ZM61,1h.32a54.35,54.35,0,0,1,54.25,54.09h.5l-.49.17v49.07a6.45,6.45,0,0,0-4.07,1.69L65.67,60.18a6.46,6.46,0,1,0-9.2-.18L22.91,93.56A54.22,54.22,0,0,1,6.75,55.09h0A54.34,54.34,0,0,1,61,1Zm49.37,113.16L99.62,124.91a55.2,55.2,0,0,0-38.46-15.57A54.24,54.24,0,0,1,23.63,94.25L57.22,60.67A6.43,6.43,0,0,0,61.16,62a6.34,6.34,0,0,0,3.74-1.2l45.93,45.92a6.45,6.45,0,0,0-.46,7.42Zm.6.82a6.43,6.43,0,0,0,4.61,2.24V154.3a55.4,55.4,0,0,0-15.24-28.7ZM64.69,159.84a6.38,6.38,0,0,0-3.53-1.06,6.46,6.46,0,0,0-3.74,1.2l-45.6-45.6a6.43,6.43,0,0,0-.49-7.83L22.92,95a55.25,55.25,0,0,0,38.24,15.38,54.21,54.21,0,0,1,37.75,15.28Zm1.93,5.4a5.46,5.46,0,1,1-9.27-3.91c.12-.11.25-.23.38-.33a3.79,3.79,0,0,1,.4-.3,5.45,5.45,0,0,1,5.84-.14c.14.09.28.18.42.29a4.08,4.08,0,0,1,.39.31A5.44,5.44,0,0,1,66.62,165.24Zm-9.44-106a5.46,5.46,0,1,1,7.79.18,3.9,3.9,0,0,1-.38.33,3.79,3.79,0,0,1-.4.3A5.43,5.43,0,0,1,57.93,60a4.08,4.08,0,0,1-.39-.31A4,4,0,0,1,57.18,59.29ZM6.74,65.4A55.43,55.43,0,0,0,22.2,94.27L10.62,105.85a6.42,6.42,0,0,0-3.88-1.52Zm-1,50.78a5.45,5.45,0,0,1,0-10.81,5.81,5.81,0,0,1,.72-.05h.28a5.45,5.45,0,0,1,3.17,1.23,2.91,2.91,0,0,1,.37.33,3.92,3.92,0,0,1,.34.37,5.4,5.4,0,0,1,.47,6.39,4.43,4.43,0,0,1-.29.42c-.1.14-.21.26-.32.39a5.43,5.43,0,0,1-3.74,1.76l-.28,0A4.37,4.37,0,0,1,5.74,116.18Zm109.84,49a54.33,54.33,0,0,1-54.26,54.26H61A54.33,54.33,0,0,1,6.74,165.19v-48a6.39,6.39,0,0,0,4.45-2.06l45.46,45.46a6.46,6.46,0,1,0,8.84-.17l34.15-34.14a54.26,54.26,0,0,1,15.94,38.37v.51Zm.28-48.95-.28,0a5.46,5.46,0,0,1-3.91-2c-.1-.13-.21-.26-.3-.4a4,4,0,0,1-.27-.44,5.44,5.44,0,0,1,.44-6q.15-.19.33-.39l.35-.35a5.45,5.45,0,0,1,3.36-1.39h.28a5.68,5.68,0,0,1,.72.05,5.45,5.45,0,0,1,0,10.81A4.28,4.28,0,0,1,115.86,116.24Z"/></g></g></svg>